<?xml version="1.0" standalone="no"?>
<!DOCTYPE svg PUBLIC "-//W3C//DTD SVG 20010904//EN"
 "http://www.w3.org/TR/2001/REC-SVG-20010904/DTD/svg10.dtd">
<svg version="1.0" xmlns="http://www.w3.org/2000/svg"
 width="545.000000pt" height="435.000000pt" viewBox="0 0 545.000000 435.000000"
 preserveAspectRatio="xMidYMid meet">

<g transform="translate(0.000000,435.000000) scale(0.100000,-0.100000)"
fill="#000000" stroke="none">
<path d="M2536 3140 c-49 -93 -80 -143 -282 -443 -249 -369 -364 -612 -367
-777 -2 -65 -2 -65 33 -82 27 -14 60 -18 150 -18 142 1 230 16 401 70 74 23
172 48 219 56 161 26 340 14 488 -32 45 -15 86 -24 89 -20 10 9 -13 135 -37
209 -45 134 -150 326 -307 559 -246 365 -254 377 -300 465 -25 46 -46 83 -47
83 -2 0 -20 -32 -40 -70z m180 -290 c240 -355 271 -404 333 -515 56 -100 115
-242 128 -308 l6 -27 -65 30 c-277 130 -795 127 -1075 -5 -85 -40 -85 -39 -47
73 56 163 131 295 361 631 84 123 167 248 184 278 17 30 32 53 34 51 1 -2 65
-95 141 -208z"/>
<path d="M2920 1874 c-14 -2 -59 -9 -100 -15 -41 -6 -143 -26 -226 -45 -264
-59 -486 -64 -644 -15 -38 12 -62 15 -66 9 -10 -16 5 -141 27 -220 70 -254
263 -449 509 -514 95 -25 254 -22 345 6 156 49 287 143 380 273 18 25 22 26
51 16 100 -38 233 88 251 240 10 89 -53 180 -127 181 -17 1 -31 11 -45 33 -16
25 -31 35 -70 44 -47 10 -229 15 -285 7z m431 -173 c64 -52 -7 -245 -98 -267
-46 -12 -49 9 -15 108 18 51 32 101 32 110 0 9 4 28 10 42 11 31 38 34 71 7z
m-1196 -80 c122 -38 249 -53 435 -54 242 -1 402 29 554 105 32 16 60 28 62 26
2 -2 -4 -33 -12 -68 -32 -140 -134 -299 -241 -380 -217 -161 -492 -170 -711
-22 -143 97 -257 276 -278 433 l-7 50 64 -35 c35 -19 95 -44 134 -55z"/>
</g>
</svg>
