<svg xmlns="http://www.w3.org/2000/svg" xmlns:svgjs="http://svgjs.com/svgjs" xmlns:xlink="http://www.w3.org/1999/xlink" width="288" height="288"><svg xmlns="http://www.w3.org/2000/svg" width="288" height="288" enable-background="new 0 0 483.2 483.2" viewBox="0 0 483.2 483.2"><polygon fill="#fff" points="33.6 0 33.6 352 163.2 480 449.6 480 449.6 0" class="colorfff svgShape"/><polyline fill="#fff" points="449.6 480 449.6 0 33.6 0" class="colore9f4f3 svgShape"/><polyline fill="#fff" points="449.6 224 449.6 0 33.6 0" class="colord4e8e5 svgShape"/><polygon fill="#fff" points="289.6 480.8 161.6 352 161.6 480 289.6 480" class="colord6e5e3 svgShape"/><polygon fill="#fff" points="33.6 352 161.6 483.2 161.6 352" class="color8ac4bd svgShape"/><polygon fill="#fff" points="82.4 402.4 161.6 483.2 161.6 352 95.2 413.6" class="color67a59c svgShape"/><polygon fill="#215732" points="384.8 336.8 303.2 343.2 222.4 336.8 303.2 176.8" class="color1589ad svgShape"/><polyline fill="#215732" points="303.2 176.8 384.8 336.8 303.2 343.2" class="color035670 svgShape"/><polygon fill="#215732" points="303.2 314.4 349.6 268 324 216.8 303.2 196 283.2 216.8 256.8 268" class="color1ea4c4 svgShape"/><polyline fill="#215732" points="303.2 314.4 349.6 268 324 216.8 303.2 196" class="color066b93 svgShape"/><polygon fill="#215732" points="338.4 332.8 218.4 343.2 98.4 332.8 218.4 97.6" class="color1589ad svgShape"/><polyline fill="#215732" points="218.4 97.6 338.4 332.8 218.4 343.2" class="color057091 svgShape"/><polygon fill="#215732" points="218.4 300.8 286.4 232.8 248 156.8 218.4 126.4 188.8 156.8 149.6 232.8" class="color1ea4c4 svgShape"/><polyline fill="#215732" points="218.4 300.8 286.4 232.8 248 156.8 218.4 126.4" class="color1290ad svgShape"/><polygon fill="#215732" points="237.6 214.4 257.6 234.4 277.6 214.4 218.4 97.6 159.2 214.4 179.2 234.4 199.2 214.4 218.4 234.4" class="color9adfef svgShape"/><polyline fill="#215732" points="218.4 234.4 237.6 214.4 257.6 234.4 277.6 214.4 218.4 97.6" class="color7dd4e2 svgShape"/><rect width="288" height="16" x="97.6" y="328" fill="#215732" class="color057091 svgShape"/><circle cx="349.6" cy="136" r="37.6" fill="#f98d2b" class="colorf98d2b svgShape"/><path fill="#dd6e12" d="M376.8,108.8c14.4,14.4,14.4,38.4,0,53.6s-38.4,14.4-53.6,0" class="colordd6e12 svgShape"/></svg></svg>