<svg xmlns="http://www.w3.org/2000/svg" xmlns:svgjs="http://svgjs.com/svgjs" xmlns:xlink="http://www.w3.org/1999/xlink" width="288" height="288"><svg xmlns="http://www.w3.org/2000/svg" width="288" height="288" viewBox="0 0 700 700"><path fill="#215732" d="m349.72 244.75c-4.6328 0.074219-9.0508 1.9805-12.281 5.3086-3.2305 3.3242-5.0078 7.7969-4.9453 12.434v122.5c-0.066407 4.6836 1.75 9.1992 5.0391 12.535s7.7773 5.2109 12.461 5.2109c4.6875 0 9.1758-1.875 12.465-5.2109 3.2891-3.3359 5.1016-7.8516 5.0352-12.535v-122.5c0.066406-4.7305-1.7852-9.2852-5.1367-12.629-3.3477-3.3398-7.9062-5.1875-12.637-5.1133z" class="color000 svgShape"/><path fill="#215732" fill-rule="evenodd" d="m367.5 175c0 9.6641-7.8359 17.5-17.5 17.5s-17.5-7.8359-17.5-17.5 7.8359-17.5 17.5-17.5 17.5 7.8359 17.5 17.5" class="color000 svgShape"/><path fill="#215732" d="m350 35c-135.1 0-245 109.9-245 245s109.9 245 245 245 245-109.9 245-245-109.9-245-245-245zm0 35c116.19 0 210 93.812 210 210s-93.812 210-210 210-210-93.812-210-210 93.812-210 210-210z" class="color000 svgShape"/></svg></svg>